<svg width="106" height="26" viewBox="0 0 106 26" fill="none" xmlns="http://www.w3.org/2000/svg">
<path d="M32.1973 18.4932C32.1973 18.5811 32.1143 18.7227 31.9482 18.918C31.9482 19.25 31.8652 19.6797 31.6992 20.207C30.625 21.5059 29.1211 22.4043 27.1875 22.9023C26.8945 22.9805 25.2637 23.3857 22.2949 24.1182C22.0605 24.1182 21.6895 24.1475 21.1816 24.2061C20.6934 24.4111 20.4102 24.5137 20.332 24.5137C20.3027 24.5137 20.1807 24.4746 19.9658 24.3965C19.751 24.3184 19.6338 24.2793 19.6143 24.2793C19.6338 24.2793 19.6484 24.2793 19.6582 24.2793C19.5703 24.3379 19.2529 24.4404 18.7061 24.5869C17.5146 24.9287 16.4844 25.0996 15.6152 25.0996C11.5137 25.0996 8.01758 24.2158 5.12695 22.4482C4.43359 21.9111 3.43262 21.1641 2.12402 20.207C0.708008 18.0684 0 16.8037 0 16.4131C0 15.1631 0.209961 14.0059 0.629883 12.9414C0.922852 12.209 1.55273 11.0078 2.51953 9.33789C3.55469 8.05859 4.42383 7.15527 5.12695 6.62793C6.42578 5.63184 8.02246 4.55762 9.91699 3.40527C10.4541 3.24902 11.2695 2.98535 12.3633 2.61426C12.793 2.39941 13.4814 2.10645 14.4287 1.73535C17.9248 0.924805 19.8926 0.519531 20.332 0.519531C20.3809 0.519531 20.5176 0.558594 20.7422 0.636719C20.9668 0.714844 21.084 0.753906 21.0938 0.753906C21.123 0.753906 21.2207 0.734375 21.3867 0.695312C21.5625 0.65625 21.6699 0.636719 21.709 0.636719C23.0176 0.636719 23.6719 1.19336 23.6719 2.30664C23.6719 3.32227 23.3838 3.83008 22.8076 3.83008C22.7783 3.83008 22.3828 3.77637 21.6211 3.66895C20.8594 3.55176 20.4492 3.49316 20.3906 3.49316C19.873 3.49316 18.96 3.67871 17.6514 4.0498C17.1338 4.1084 16.3477 4.25 15.293 4.47461C15.0684 4.63086 14.7021 4.83594 14.1943 5.08984C12.3291 5.71484 10.415 6.71094 8.45215 8.07812C6.03027 9.76758 4.47754 11.4863 3.79395 13.2344C3.18848 14.1523 2.88574 15.0361 2.88574 15.8857C2.88574 16.5303 3.24707 17.2676 3.96973 18.0977C4.69238 18.918 5.50781 19.5332 6.41602 19.9434C6.71875 20.207 7.21191 20.5 7.89551 20.8223C8.12988 20.8711 8.96973 21.0713 10.415 21.4229C11.4404 21.667 12.2705 21.7891 12.9053 21.7891H14.9414C15.9766 21.7891 17.7588 21.5645 20.2881 21.1152C22.5244 20.7148 23.8086 20.4561 24.1406 20.3389L26.7041 19.416C27.7588 19.0449 28.4717 18.6641 28.8428 18.2734C29.0479 18.0586 29.1504 17.6924 29.1504 17.1748C29.1504 16.8428 28.999 16.4473 28.6963 15.9883C28.4033 15.5195 28.0859 15.1924 27.7441 15.0068C27.2266 14.6553 26.4404 14.2451 25.3857 13.7764C24.7119 13.6201 23.5352 13.5176 21.8555 13.4688C21.8164 13.3125 21.665 13.1465 21.4014 12.9707L18.3545 12.8096C18.4033 12.8096 18.4277 12.8096 18.4277 12.8096C18.4277 12.8291 17.7051 12.917 16.2598 13.0732C15.9863 13.1025 15.7031 13.249 15.4102 13.5127C15.0977 13.249 14.9414 12.9365 14.9414 12.5752C14.9414 12.3311 15.0977 12.1113 15.4102 11.916C15.9766 11.5742 16.4258 11.3691 16.7578 11.3008C18.7402 10.9395 20.4395 10.7588 21.8555 10.7588C22.1777 10.7588 22.4805 10.7686 22.7637 10.7881C22.793 10.7881 22.9834 10.7539 23.335 10.6855C23.6865 10.6074 23.8818 10.5684 23.9209 10.5684C24.9268 10.8711 25.4688 11.0225 25.5469 11.0225C25.5664 11.0225 25.5859 11.0225 25.6055 11.0225C27.0508 11.0225 28.3691 11.5107 29.5605 12.4873C31.3184 13.9229 32.1973 15.9248 32.1973 18.4932Z" fill="#151515"/>
<path d="M46.6553 17.0137C46.7236 17.2383 46.7578 17.5654 46.7578 17.9951C46.7578 18.2393 46.748 18.5225 46.7285 18.8447C46.6504 19.8018 46.4404 20.3682 46.0986 20.5439C45.5713 20.5439 44.4238 20.6611 42.6562 20.8955L40.0195 21.2471C40.0293 21.2471 40.0342 21.2471 40.0342 21.2471C40.0342 21.2666 39.5752 21.374 38.6572 21.5693C38.5498 21.4814 38.2812 21.4375 37.8516 21.4375C37.7246 21.5645 37.6514 21.6377 37.6318 21.6572C37.6318 21.9307 38.6621 22.3555 40.7227 22.9316C41.2891 22.9609 41.9336 23.0146 42.6562 23.0928C43.8672 23.2393 44.4727 23.542 44.4727 24.001C44.4727 24.1279 44.0967 24.3818 43.3447 24.7627C43.3154 24.792 43.1152 24.9873 42.7441 25.3486C42.0508 25.417 41.7041 25.4609 41.7041 25.4805C41.7041 25.4805 41.7139 25.4805 41.7334 25.4805C41.6846 25.4805 41.1865 25.4463 40.2393 25.3779L38.7012 25.2607C38.3789 25.2607 37.8516 25.0898 37.1191 24.748C36.9629 24.6699 36.5381 24.4502 35.8447 24.0889C35.0146 23.7959 34.2578 23.249 33.5742 22.4482C32.9004 21.6377 32.5635 20.9004 32.5635 20.2363C32.5635 19.416 32.666 18.8105 32.8711 18.4199C34.3262 15.5586 37.2803 14.1279 41.7334 14.1279C43.1787 14.1279 44.2627 14.46 44.9854 15.124C45.5518 15.6318 46.1084 16.2617 46.6553 17.0137ZM43.6523 18.2002C43.5059 17.7412 43.3984 17.3701 43.3301 17.0869C43.3008 16.9893 43.0322 16.8135 42.5244 16.5596C41.4111 16.6572 40.21 16.8184 38.9209 17.043C38.5986 17.0918 38.1836 17.2871 37.6758 17.6289C37.1777 17.9707 36.9287 18.2344 36.9287 18.4199C36.9287 18.5957 36.9824 18.6836 37.0898 18.6836H41.7334C42.8174 18.6836 43.457 18.5225 43.6523 18.2002Z" fill="#151515"/>
<path d="M62.7539 22.9023C62.7539 24.3184 62.4219 25.0264 61.7578 25.0264C61.6699 25.0264 61.4453 24.9385 61.084 24.7627C60.6641 24.5576 60.3564 24.4355 60.1611 24.3965C59.6045 23.5273 59.3262 22.6582 59.3262 21.7891C59.3262 20.8223 59.0039 19.3281 58.3594 17.3066C58.252 17.1699 58.0127 17.1016 57.6416 17.1016C57.3193 17.1016 56.8994 17.2432 56.3818 17.5264C56.2939 17.5752 56.1523 17.6533 55.957 17.7607L55.1221 18.2002C54.7412 18.4736 54.0137 19.2402 52.9395 20.5C51.709 21.9453 50.957 22.668 50.6836 22.668C49.9805 22.668 49.3896 22.2236 48.9111 21.335C48.501 20.5928 48.2959 19.875 48.2959 19.1816C48.2959 18.9082 48.5059 18.3467 48.9258 17.4971C48.9258 17.3213 48.9697 17.0381 49.0576 16.6475C49.1162 16.4229 49.375 15.8906 49.834 15.0508C49.8535 15.0508 50 15.0166 50.2734 14.9482C50.5469 14.8994 50.7031 14.875 50.7422 14.875C50.7715 15.0117 50.9863 15.2412 51.3867 15.5635C51.7871 15.8857 52.0605 16.0469 52.207 16.0469C52.2363 16.0469 53.1348 15.6562 54.9023 14.875C56.6602 14.084 57.5635 13.6885 57.6123 13.6885C58.6084 13.6885 59.6826 14.4209 60.835 15.8857C61.0889 16.208 61.46 16.7842 61.9482 17.6143C62.4854 18.9619 62.7539 20.7246 62.7539 22.9023Z" fill="#151515"/>
<path d="M69.3311 9.42578C69.3311 9.66992 69.043 10.1191 68.4668 10.7734C67.5 10.5 67.0166 10.0947 67.0166 9.55762C67.0166 9.04004 67.2119 8.44434 67.6025 7.77051C67.8076 7.75098 68.2324 7.69727 68.877 7.60938C69.1797 8.24414 69.3311 8.84961 69.3311 9.42578ZM68.3936 16.0762C68.4229 16.1934 68.4863 18.5469 68.584 23.1367C68.584 23.1465 68.584 23.1562 68.584 23.166C68.584 23.3418 68.4766 23.8691 68.2617 24.748L67.8809 24.8359C67.8711 24.8457 67.8516 24.8506 67.8223 24.8506C67.627 24.8506 67.2021 24.7285 66.5479 24.4844C66.5576 24.4551 66.5625 24.4209 66.5625 24.3818C66.5625 24.1768 66.4551 23.9082 66.2402 23.5762C65.9082 23.0781 65.7227 22.7559 65.6836 22.6094C65.6738 22.5801 65.6689 22.5166 65.6689 22.4189C65.6689 22.1162 65.708 21.5107 65.7861 20.6025C65.9424 18.7568 66.167 17.0967 66.46 15.6221C66.7236 15.2705 67.0508 15.0947 67.4414 15.0947C67.8711 15.0947 68.1885 15.4219 68.3936 16.0762Z" fill="#151515"/>
<path d="M89.6777 14.4209C89.6777 15.0752 89.6094 15.5732 89.4727 15.915C89.1992 16.6182 88.8867 17.4189 88.5352 18.3174C88.4375 18.3467 88.3301 18.4346 88.2129 18.5811C88.1445 18.9229 87.8955 19.3281 87.4658 19.7969L86.4404 20.9395C86.4111 21.0273 86.377 21.1494 86.3379 21.3057C85.3223 22.3213 83.9551 23.2539 82.2363 24.1035C80.5859 24.6016 79.3896 24.8506 78.6475 24.8506C78.1787 24.8506 77.4951 24.7139 76.5967 24.4404C73.1982 23.415 71.499 21.0225 71.499 17.2627C71.499 15.9736 71.9141 14.8066 72.7441 13.7617H73.5059C74.1211 14.2109 74.4287 14.9092 74.4287 15.8564C74.4287 15.9053 74.4092 16.2324 74.3701 16.8379C74.3408 17.4434 74.3262 17.7803 74.3262 17.8486C74.3262 19.5381 75.2344 20.6318 77.0508 21.1299C77.6953 21.3057 78.0176 21.4033 78.0176 21.4229C78.0176 21.4326 78.0078 21.4375 77.9883 21.4375C78.0078 21.4375 78.1738 21.4229 78.4863 21.3936C78.8086 21.3545 78.9941 21.335 79.043 21.335C80.0098 21.335 81.333 20.7832 83.0127 19.6797C84.0088 19.0156 85 18.0439 85.9863 16.7646C86.9824 15.4951 87.5439 14.4697 87.6709 13.6885C87.7002 13.542 87.8809 13.3223 88.2129 13.0293C88.5547 12.7266 88.7891 12.5752 88.916 12.5752C89.4238 12.5752 89.6777 13.1904 89.6777 14.4209Z" fill="#151515"/>
<path d="M104.927 21.5986C104.927 21.7646 104.736 21.999 104.355 22.3018C103.975 22.5947 103.604 22.7949 103.242 22.9023C102.578 23.1074 101.299 23.5029 99.4043 24.0889C97.2559 24.7432 95.6543 25.0703 94.5996 25.0703C94.5703 25.0703 94.3652 25.0312 93.9844 24.9531C93.6035 24.875 93.4033 24.8359 93.3838 24.8359C93.3447 24.8359 93.1543 24.875 92.8125 24.9531C92.4707 25.0312 92.2998 25.0703 92.2998 25.0703C92.1436 25.0703 91.9336 24.8848 91.6699 24.5137C91.3965 24.1621 91.2598 23.8936 91.2598 23.708C91.2598 23.6494 91.4111 23.4199 91.7139 23.0195L96.2109 22.1846C98.1348 21.833 99.4482 21.4473 100.151 21.0273C100.151 20.9688 100.142 20.9102 100.122 20.8516C99.79 20.5977 98.7354 20.1045 96.958 19.3721C95.0928 18.6006 94.0186 18.1318 93.7354 17.9658C93.3838 17.8486 92.8271 17.541 92.0654 17.043C91.8506 16.8379 91.7432 16.4131 91.7432 15.7686C91.7432 15.8174 91.7334 15.8418 91.7139 15.8418C91.6943 15.8418 91.6602 15.7588 91.6113 15.5928C91.5918 15.5342 91.582 15.4756 91.582 15.417C91.582 15.0068 92.0508 14.6211 92.9883 14.2598C94.1113 13.8203 95.7861 13.4102 98.0127 13.0293C100.239 12.6387 102.07 12.4434 103.506 12.4434C103.896 12.4434 104.15 12.5068 104.268 12.6338C104.854 13.2783 105.146 13.7471 105.146 14.04C105.146 14.5967 104.956 14.9629 104.575 15.1387C104.243 15.2266 102.769 15.4121 100.151 15.6953C99.6533 15.9004 99.375 16.0029 99.3164 16.0029C99.2871 16.0029 99.2041 15.9834 99.0674 15.9443C98.9111 15.9053 98.8184 15.8857 98.7891 15.8857C98.252 15.8857 97.627 16.0615 96.9141 16.4131C97.0508 16.667 97.2754 16.877 97.5879 17.043C97.9102 17.0918 98.5889 17.2676 99.624 17.5703C99.8779 17.668 100.41 17.8584 101.221 18.1416L101.44 18.2148C101.597 18.2637 102.07 18.459 102.861 18.8008C103.35 19.0059 103.784 19.3477 104.165 19.8262C104.321 20.002 104.453 20.3633 104.561 20.9102C104.561 20.9297 104.619 21.0371 104.736 21.2324C104.863 21.4277 104.927 21.5498 104.927 21.5986Z" fill="#151515"/>
</svg>
