<svg width="45" height="45" viewBox="0 0 45 45" fill="none" xmlns="http://www.w3.org/2000/svg">
<path fill-rule="evenodd" clip-rule="evenodd" d="M22.5 4.5C17.7261 4.5 13.1477 6.39642 9.77208 9.77207C6.39643 13.1477 4.5 17.7261 4.5 22.5C4.5 27.2739 6.39642 31.8523 9.77208 35.2279C13.1477 38.6036 17.7261 40.5 22.5 40.5C27.2739 40.5 31.8523 38.6036 35.2279 35.2279C38.6036 31.8523 40.5 27.2739 40.5 22.5C40.5 17.7261 38.6036 13.1477 35.2279 9.77208C31.8523 6.39642 27.2739 4.5 22.5 4.5ZM20.9093 27.6592C20.4994 28.0836 20.2726 28.652 20.2777 29.2419C20.2829 29.8318 20.5195 30.3962 20.9367 30.8133C21.3538 31.2305 21.9182 31.4671 22.5081 31.4723C23.098 31.4774 23.6664 31.2506 24.0908 30.8407L30.8408 24.0907C31.2626 23.6688 31.4995 23.0966 31.4995 22.5C31.4995 21.9034 31.2626 21.3312 30.8408 20.9092L24.0908 14.1592C23.6664 13.7494 23.098 13.5226 22.5081 13.5277C21.9182 13.5329 21.3538 13.7695 20.9367 14.1867C20.5195 14.6038 20.2829 15.1682 20.2777 15.7581C20.2726 16.348 20.4994 16.9164 20.9093 17.3407L23.8185 20.25L15.75 20.25C15.1533 20.25 14.581 20.4871 14.159 20.909C13.7371 21.331 13.5 21.9033 13.5 22.5C13.5 23.0967 13.7371 23.669 14.159 24.091C14.581 24.5129 15.1533 24.75 15.75 24.75L23.8185 24.75L20.9093 27.6592Z" fill="white"/>
</svg>
